<?xml version="1.0" encoding="UTF-8" standalone="no"?>
<!-- Created with Inkscape (http://www.inkscape.org/) -->

<svg
   xmlns:dc="http://purl.org/dc/elements/1.1/"
   xmlns:cc="http://creativecommons.org/ns#"
   xmlns:rdf="http://www.w3.org/1999/02/22-rdf-syntax-ns#"
   xmlns:svg="http://www.w3.org/2000/svg"
   xmlns="http://www.w3.org/2000/svg"
   xmlns:sodipodi="http://sodipodi.sourceforge.net/DTD/sodipodi-0.dtd"
   xmlns:inkscape="http://www.inkscape.org/namespaces/inkscape"
   width="199.00243mm"
   height="146.48009mm"
   viewBox="0 0 199.00243 146.48009"
   version="1.1"
   id="svg8"
   inkscape:export-filename="C:\Users\JLOSADA\Pictures\bitmap.png"
   inkscape:export-xdpi="96"
   inkscape:export-ydpi="96"
   inkscape:version="0.92.4 (5da689c313, 2019-01-14)"
   sodipodi:docname="drawing.svg">
  <defs
     id="defs2" />
  <sodipodi:namedview
     id="base"
     pagecolor="#ffffff"
     bordercolor="#666666"
     borderopacity="1.0"
     inkscape:pageopacity="0.0"
     inkscape:pageshadow="2"
     inkscape:zoom="0.7"
     inkscape:cx="661.12748"
     inkscape:cy="249.26191"
     inkscape:document-units="mm"
     inkscape:current-layer="layer1"
     showgrid="false"
     borderlayer="true"
     inkscape:pagecheckerboard="true"
     fit-margin-top="0"
     fit-margin-left="0"
     fit-margin-right="0"
     fit-margin-bottom="0"
     inkscape:window-width="1920"
     inkscape:window-height="1017"
     inkscape:window-x="-8"
     inkscape:window-y="-8"
     inkscape:window-maximized="1" />
  <metadata
     id="metadata5">
    <rdf:RDF>
      <cc:Work
         rdf:about="">
        <dc:format>image/svg+xml</dc:format>
        <dc:type
           rdf:resource="http://purl.org/dc/dcmitype/StillImage" />
        <dc:title></dc:title>
      </cc:Work>
    </rdf:RDF>
  </metadata>
  <g
     inkscape:label="Layer 1"
     inkscape:groupmode="layer"
     id="layer1"
     transform="translate(436.14162,65.053017)">
    <path
       style="fill:none;fill-opacity:1;stroke:#ffffff;stroke-width:7.26499987;stroke-linecap:round;stroke-linejoin:round;stroke-miterlimit:4;stroke-dasharray:none;stroke-dashoffset:0;stroke-opacity:1"
       d="m -432.45738,-17.432477 h 11.15033 c 0.46711,-4.986656 1.49941,-8.280121 5.57492,-8.058313 5.93567,0.323047 1.61593,6.569773 8.51667,4.744936 3.45739,-9.060942 4.58184,-29.265581 7.81444,-37.522574 0.80223,-2.049148 2.41515,-2.945975 3.45727,-3.142097 4.23519,-0.797044 4.22434,14.022009 7.5641,32.255085 2.19905,9.31083 8.79657,64.395575 12.24074,72.388135 l 4.65193,0.0947 c 0.98396,-7.94575 6.312,-30.64308 9.85305,-50.6177899 2.37478,-13.3958811 3.63217,-26.5408561 6.30809,-32.0585041 3.30001,-6.804496 6.0879,-2.123223 12.83518,21.310223 l 101.66723,0.417263"
       id="path826"
       inkscape:connector-curvature="0"
       sodipodi:nodetypes="ccscsscccsscc"
       inkscape:export-xdpi="96"
       inkscape:export-ydpi="96" />
    <flowRoot
       xml:space="preserve"
       id="flowRoot827"
       style="font-style:normal;font-weight:normal;font-size:40px;line-height:1.25;font-family:sans-serif;letter-spacing:0px;word-spacing:0px;fill:#000000;fill-opacity:1;stroke:none"
       transform="matrix(0.26458333,0,0,0.26458333,-436.14162,-65.053017)"><flowRegion
         id="flowRegion829"><rect
           id="rect831"
           width="60"
           height="191.42857"
           x="325.71429"
           y="237.64159" /></flowRegion><flowPara
         id="flowPara833"></flowPara></flowRoot>    <flowRoot
       xml:space="preserve"
       id="flowRoot835"
       style="font-style:normal;font-weight:normal;font-size:40px;line-height:1.25;font-family:sans-serif;letter-spacing:0px;word-spacing:0px;fill:#000000;fill-opacity:1;stroke:none"
       transform="matrix(0.26458333,0,0,0.26458333,-436.14162,-65.053017)"><flowRegion
         id="flowRegion837"
         style="fill:#000000"><rect
           id="rect839"
           width="105.71429"
           height="184.28571"
           x="324.28571"
           y="247.64159"
           style="fill:#000000" /></flowRegion><flowPara
         id="flowPara841"></flowPara></flowRoot>    <text
       xml:space="preserve"
       style="font-style:normal;font-weight:normal;font-size:10.58333302px;line-height:1.25;font-family:sans-serif;letter-spacing:0px;word-spacing:0px;fill:#000000;fill-opacity:1;stroke:none;stroke-width:0.26458332"
       x="-348.45114"
       y="7.272388"
       id="text845"><tspan
         sodipodi:role="line"
         id="tspan843"
         x="-348.45114"
         y="16.927883"
         style="stroke-width:0.26458332" /></text>
    <flowRoot
       xml:space="preserve"
       id="flowRoot847"
       style="font-style:normal;font-weight:normal;font-size:40px;line-height:1.25;font-family:sans-serif;letter-spacing:0px;word-spacing:0px;fill:#000000;fill-opacity:1;stroke:none"
       transform="matrix(0.26458333,0,0,0.26458333,-436.14162,-65.053017)"><flowRegion
         id="flowRegion849"><rect
           id="rect851"
           width="12.857142"
           height="47.142857"
           x="317.14285"
           y="269.07016" /></flowRegion><flowPara
         id="flowPara853"></flowPara></flowRoot>    <flowRoot
       xml:space="preserve"
       id="flowRoot855"
       style="font-style:normal;font-weight:normal;font-size:40px;line-height:1.25;font-family:sans-serif;letter-spacing:0px;word-spacing:0px;fill:#000000;fill-opacity:1;stroke:none"
       transform="matrix(0.26458333,0,0,0.26458333,-436.14162,-65.053017)"><flowRegion
         id="flowRegion857"><rect
           id="rect859"
           width="202.85715"
           height="284.28571"
           x="321.42856"
           y="236.21301" /></flowRegion><flowPara
         id="flowPara861"></flowPara></flowRoot>    <flowRoot
       xml:space="preserve"
       id="flowRoot863"
       style="font-style:normal;font-weight:normal;font-size:40px;line-height:1.25;font-family:sans-serif;letter-spacing:0px;word-spacing:0px;fill:#000000;fill-opacity:1;stroke:none"
       transform="matrix(0.26458333,0,0,0.26458333,-436.14162,-65.053017)"><flowRegion
         id="flowRegion865"><rect
           id="rect867"
           width="232.85715"
           height="330"
           x="330"
           y="240.49873" /></flowRegion><flowPara
         id="flowPara869"
         style="font-style:normal;font-variant:normal;font-weight:normal;font-stretch:normal;font-size:192px;font-family:sans-serif;-inkscape-font-specification:'sans-serif, Normal';font-variant-ligatures:normal;font-variant-caps:normal;font-variant-numeric:normal;font-feature-settings:normal;text-align:start;writing-mode:lr-tb;text-anchor:start">dasdasd</flowPara></flowRoot>    <g
       aria-label="i"
       transform="matrix(0.37868935,0,0,1.1145044,-474.61452,-278.16229)"
       style="font-style:normal;font-weight:normal;font-size:40px;line-height:1.25;font-family:sans-serif;letter-spacing:0px;word-spacing:0px;fill:#ffffff;fill-opacity:1;stroke:none;stroke-width:0.40726778"
       id="flowRoot871">
      <path
         d="m 333.85547,254.09934 h -9.9375 v -9.14063 h 9.9375 z m -0.5625,61.125 h -8.8125 v -52.35938 h 8.8125 z"
         style="font-style:normal;font-variant:normal;font-weight:normal;font-stretch:normal;font-size:96px;font-family:sans-serif;-inkscape-font-specification:'sans-serif, Normal';font-variant-ligatures:normal;font-variant-caps:normal;font-variant-numeric:normal;font-feature-settings:normal;text-align:start;writing-mode:lr-tb;text-anchor:start;fill:#ffffff;stroke-width:0.14866611"
         id="path895" />
    </g>
    <g
       aria-label="tal"
       transform="matrix(0.71693393,0,0,0.57960318,-602.1242,-149.69045)"
       style="font-style:normal;font-variant:normal;font-weight:normal;font-stretch:normal;font-size:42.66666794px;line-height:1.25;font-family:sans-serif;-inkscape-font-specification:'sans-serif, Normal';font-variant-ligatures:normal;font-variant-caps:normal;font-variant-numeric:normal;font-feature-settings:normal;text-align:start;letter-spacing:0px;word-spacing:0px;writing-mode:lr-tb;text-anchor:start;fill:#ffffff;fill-opacity:1;stroke:none;stroke-width:0.41044742"
       id="flowRoot879">
      <path
         d="m 398.7168,316.18527 q -2.48438,0.65625 -5.4375,1.07813 -2.90625,0.42187 -5.20313,0.42187 -8.01562,0 -12.1875,-4.3125 -4.17187,-4.3125 -4.17187,-13.82812 V 271.7009 h -5.95313 v -7.40625 h 5.95313 v -15.04688 h 8.8125 v 15.04688 h 18.1875 v 7.40625 h -18.1875 v 23.85937 q 0,4.125 0.1875,6.46875 0.1875,2.29688 1.3125,4.3125 1.03125,1.875 2.8125,2.76563 1.82812,0.84375 5.53125,0.84375 2.15625,0 4.5,-0.60938 2.34375,-0.65625 3.375,-1.07812 h 0.46875 z"
         style="font-style:normal;font-variant:normal;font-weight:normal;font-stretch:normal;font-size:96px;font-family:sans-serif;-inkscape-font-specification:'sans-serif, Normal';font-variant-ligatures:normal;font-variant-caps:normal;font-variant-numeric:normal;font-feature-settings:normal;text-align:start;writing-mode:lr-tb;text-anchor:start;fill:#ffffff;stroke-width:0.21165378"
         id="path911" />
      <path
         d="m 450.0918,316.65402 h -8.76563 v -5.57812 q -1.17187,0.79687 -3.1875,2.25 -1.96875,1.40625 -3.84375,2.25 -2.20312,1.07812 -5.0625,1.78125 -2.85937,0.75 -6.70312,0.75 -7.07813,0 -12,-4.6875 -4.92188,-4.6875 -4.92188,-11.95313 0,-5.95312 2.53125,-9.60937 2.57813,-3.70313 7.3125,-5.8125 4.78125,-2.10938 11.48438,-2.85938 6.70312,-0.75 14.39062,-1.125 v -1.35937 q 0,-3 -1.07812,-4.96875 -1.03125,-1.96875 -3,-3.09375 -1.875,-1.07813 -4.5,-1.45313 -2.625,-0.375 -5.48438,-0.375 -3.46875,0 -7.73437,0.9375 -4.26563,0.89063 -8.8125,2.625 h -0.46875 v -8.95312 q 2.57812,-0.70313 7.45312,-1.54688 4.875,-0.84375 9.60938,-0.84375 5.53125,0 9.60937,0.9375 4.125,0.89063 7.125,3.09375 2.95313,2.15625 4.5,5.57813 1.54688,3.42187 1.54688,8.48437 z m -8.76563,-12.89062 v -14.57813 q -4.03125,0.23438 -9.51562,0.70313 -5.4375,0.46875 -8.625,1.35937 -3.79688,1.07813 -6.14063,3.375 -2.34375,2.25 -2.34375,6.23438 0,4.5 2.71875,6.79687 2.71875,2.25 8.29688,2.25 4.64062,0 8.48437,-1.78125 3.84375,-1.82812 7.125,-4.35937 z"
         style="font-style:normal;font-variant:normal;font-weight:normal;font-stretch:normal;font-size:96px;font-family:sans-serif;-inkscape-font-specification:'sans-serif, Normal';font-variant-ligatures:normal;font-variant-caps:normal;font-variant-numeric:normal;font-feature-settings:normal;text-align:start;writing-mode:lr-tb;text-anchor:start;fill:#ffffff;stroke-width:0.21165378"
         id="path913" />
      <path
         d="m 476.06055,316.65402 h -8.8125 v -72.9375 h 8.8125 z"
         style="font-style:normal;font-variant:normal;font-weight:normal;font-stretch:normal;font-size:96px;font-family:sans-serif;-inkscape-font-specification:'sans-serif, Normal';font-variant-ligatures:normal;font-variant-caps:normal;font-variant-numeric:normal;font-feature-settings:normal;text-align:start;writing-mode:lr-tb;text-anchor:start;fill:#ffffff;stroke-width:0.21165378"
         id="path915" />
    </g>
    <g
       aria-label="maging"
       transform="matrix(0.24571747,0,0,0.47854696,-432.42572,-158.89777)"
       style="font-style:normal;font-variant:normal;font-weight:normal;font-stretch:normal;font-size:42.66666794px;line-height:1.25;font-family:sans-serif;-inkscape-font-specification:'sans-serif, Normal';font-variant-ligatures:normal;font-variant-caps:normal;font-variant-numeric:normal;font-feature-settings:normal;text-align:start;letter-spacing:0px;word-spacing:0px;writing-mode:lr-tb;text-anchor:start;fill:#ffffff;fill-opacity:1;stroke:none;stroke-width:0.77158219"
       id="flowRoot887">
      <path
         d="m 433.65039,482.36887 h -8.8125 v -29.8125 q 0,-3.375 -0.32812,-6.51563 -0.28125,-3.14062 -1.26563,-5.01562 -1.07812,-2.01563 -3.09375,-3.04688 -2.01562,-1.03125 -5.8125,-1.03125 -3.70312,0 -7.40625,1.875 -3.70312,1.82813 -7.40625,4.6875 0.14063,1.07813 0.23438,2.53125 0.0937,1.40625 0.0937,2.8125 v 33.51563 h -8.8125 v -29.8125 q 0,-3.46875 -0.32813,-6.5625 -0.28125,-3.14063 -1.26562,-5.01563 -1.07813,-2.01562 -3.09375,-3 -2.01563,-1.03125 -5.8125,-1.03125 -3.60938,0 -7.26563,1.78125 -3.60937,1.78125 -7.21875,4.54688 v 39.09375 h -8.8125 v -52.35938 h 8.8125 v 5.8125 q 4.125,-3.42187 8.20313,-5.34375 4.125,-1.92187 8.76562,-1.92187 5.34375,0 9.04688,2.25 3.75,2.25 5.57812,6.23437 5.34375,-4.5 9.75,-6.46875 4.40625,-2.01562 9.42188,-2.01562 8.625,0 12.70312,5.25 4.125,5.20312 4.125,14.57812 z"
         style="font-style:normal;font-variant:normal;font-weight:normal;font-stretch:normal;font-size:96px;font-family:sans-serif;-inkscape-font-specification:'sans-serif, Normal';font-variant-ligatures:normal;font-variant-caps:normal;font-variant-numeric:normal;font-feature-settings:normal;text-align:start;writing-mode:lr-tb;text-anchor:start;fill:#ffffff;stroke-width:0.77158219"
         id="path898" />
      <path
         d="m 491.30664,482.36887 h -8.76562 v -5.57813 q -1.17188,0.79688 -3.1875,2.25 -1.96875,1.40625 -3.84375,2.25 -2.20313,1.07813 -5.0625,1.78125 -2.85938,0.75 -6.70313,0.75 -7.07812,0 -12,-4.6875 -4.92187,-4.6875 -4.92187,-11.95312 0,-5.95313 2.53125,-9.60938 2.57812,-3.70312 7.3125,-5.8125 4.78125,-2.10937 11.48437,-2.85937 6.70313,-0.75 14.39063,-1.125 v -1.35938 q 0,-3 -1.07813,-4.96875 -1.03125,-1.96875 -3,-3.09375 -1.875,-1.07812 -4.5,-1.45312 -2.625,-0.375 -5.48437,-0.375 -3.46875,0 -7.73438,0.9375 -4.26562,0.89062 -8.8125,2.625 h -0.46875 v -8.95313 q 2.57813,-0.70312 7.45313,-1.54687 4.875,-0.84375 9.60937,-0.84375 5.53125,0 9.60938,0.9375 4.125,0.89062 7.125,3.09375 2.95312,2.15625 4.5,5.57812 1.54687,3.42188 1.54687,8.48438 z m -8.76562,-12.89063 v -14.57812 q -4.03125,0.23437 -9.51563,0.70312 -5.4375,0.46875 -8.625,1.35938 -3.79687,1.07812 -6.14062,3.375 -2.34375,2.25 -2.34375,6.23437 0,4.5 2.71875,6.79688 2.71875,2.25 8.29687,2.25 4.64063,0 8.48438,-1.78125 3.84375,-1.82813 7.125,-4.35938 z"
         style="font-style:normal;font-variant:normal;font-weight:normal;font-stretch:normal;font-size:96px;font-family:sans-serif;-inkscape-font-specification:'sans-serif, Normal';font-variant-ligatures:normal;font-variant-caps:normal;font-variant-numeric:normal;font-feature-settings:normal;text-align:start;writing-mode:lr-tb;text-anchor:start;fill:#ffffff;stroke-width:0.77158219"
         id="path900" />
      <path
         d="m 550.83789,476.41574 q 0,13.3125 -6.04687,19.54688 -6.04688,6.23437 -18.60938,6.23437 -4.17187,0 -8.15625,-0.60937 -3.9375,-0.5625 -7.78125,-1.64063 v -9 h 0.46875 q 2.15625,0.84375 6.84375,2.0625 4.6875,1.26563 9.375,1.26563 4.5,0 7.45313,-1.07813 2.95312,-1.07812 4.59375,-3 1.64062,-1.82812 2.34375,-4.40625 0.70312,-2.57812 0.70312,-5.76562 v -4.78125 q -3.98437,3.1875 -7.64062,4.78125 -3.60938,1.54687 -9.23438,1.54687 -9.375,0 -14.90625,-6.75 -5.48437,-6.79687 -5.48437,-19.125 0,-6.75 1.875,-11.625 1.92187,-4.92187 5.20312,-8.48437 3.04688,-3.32813 7.40625,-5.15625 4.35938,-1.875 8.67188,-1.875 4.54687,0 7.59375,0.9375 3.09375,0.89062 6.51562,2.76562 l 0.5625,-2.25 h 8.25 z m -8.8125,-8.4375 v -28.54687 q -3.51562,-1.59375 -6.5625,-2.25 -3,-0.70313 -6,-0.70313 -7.26562,0 -11.4375,4.875 -4.17187,4.875 -4.17187,14.15625 0,8.8125 3.09375,13.35938 3.09375,4.54687 10.26562,4.54687 3.84375,0 7.6875,-1.45312 3.89063,-1.5 7.125,-3.98438 z"
         style="font-style:normal;font-variant:normal;font-weight:normal;font-stretch:normal;font-size:96px;font-family:sans-serif;-inkscape-font-specification:'sans-serif, Normal';font-variant-ligatures:normal;font-variant-caps:normal;font-variant-numeric:normal;font-feature-settings:normal;text-align:start;writing-mode:lr-tb;text-anchor:start;fill:#ffffff;stroke-width:0.77158219"
         id="path902" />
      <path
         d="m 577.65039,421.24387 h -9.9375 v -9.14063 h 9.9375 z m -0.5625,61.125 h -8.8125 v -52.35938 h 8.8125 z"
         style="font-style:normal;font-variant:normal;font-weight:normal;font-stretch:normal;font-size:96px;font-family:sans-serif;-inkscape-font-specification:'sans-serif, Normal';font-variant-ligatures:normal;font-variant-caps:normal;font-variant-numeric:normal;font-feature-settings:normal;text-align:start;writing-mode:lr-tb;text-anchor:start;fill:#ffffff;stroke-width:0.77158219"
         id="path904" />
      <path
         d="m 638.40039,482.36887 h -8.8125 v -29.8125 q 0,-3.60938 -0.42187,-6.75 -0.42188,-3.1875 -1.54688,-4.96875 -1.17187,-1.96875 -3.375,-2.90625 -2.20312,-0.98438 -5.71875,-0.98438 -3.60937,0 -7.54687,1.78125 -3.9375,1.78125 -7.54688,4.54688 v 39.09375 h -8.8125 v -52.35938 h 8.8125 v 5.8125 q 4.125,-3.42187 8.53125,-5.34375 4.40625,-1.92187 9.04688,-1.92187 8.48437,0 12.9375,5.10937 4.45312,5.10938 4.45312,14.71875 z"
         style="font-style:normal;font-variant:normal;font-weight:normal;font-stretch:normal;font-size:96px;font-family:sans-serif;-inkscape-font-specification:'sans-serif, Normal';font-variant-ligatures:normal;font-variant-caps:normal;font-variant-numeric:normal;font-feature-settings:normal;text-align:start;writing-mode:lr-tb;text-anchor:start;fill:#ffffff;stroke-width:0.77158219"
         id="path906" />
      <path
         d="m 697.83789,476.41574 q 0,13.3125 -6.04687,19.54688 -6.04688,6.23437 -18.60938,6.23437 -4.17187,0 -8.15625,-0.60937 -3.9375,-0.5625 -7.78125,-1.64063 v -9 h 0.46875 q 2.15625,0.84375 6.84375,2.0625 4.6875,1.26563 9.375,1.26563 4.5,0 7.45313,-1.07813 2.95312,-1.07812 4.59375,-3 1.64062,-1.82812 2.34375,-4.40625 0.70312,-2.57812 0.70312,-5.76562 v -4.78125 q -3.98437,3.1875 -7.64062,4.78125 -3.60938,1.54687 -9.23438,1.54687 -9.375,0 -14.90625,-6.75 -5.48437,-6.79687 -5.48437,-19.125 0,-6.75 1.875,-11.625 1.92187,-4.92187 5.20312,-8.48437 3.04688,-3.32813 7.40625,-5.15625 4.35938,-1.875 8.67188,-1.875 4.54687,0 7.59375,0.9375 3.09375,0.89062 6.51562,2.76562 l 0.5625,-2.25 h 8.25 z m -8.8125,-8.4375 v -28.54687 q -3.51562,-1.59375 -6.5625,-2.25 -3,-0.70313 -6,-0.70313 -7.26562,0 -11.4375,4.875 -4.17187,4.875 -4.17187,14.15625 0,8.8125 3.09375,13.35938 3.09375,4.54687 10.26562,4.54687 3.84375,0 7.6875,-1.45312 3.89063,-1.5 7.125,-3.98438 z"
         style="font-style:normal;font-variant:normal;font-weight:normal;font-stretch:normal;font-size:96px;font-family:sans-serif;-inkscape-font-specification:'sans-serif, Normal';font-variant-ligatures:normal;font-variant-caps:normal;font-variant-numeric:normal;font-feature-settings:normal;text-align:start;writing-mode:lr-tb;text-anchor:start;fill:#ffffff;stroke-width:0.77158219"
         id="path908" />
    </g>
  </g>
</svg>
